<mxfile host="app.diagrams.net" modified="2021-07-12T10:36:26.902Z" agent="5.0 (X11; Linux x86_64) AppleWebKit/537.36 (KHTML, like Gecko) Chrome/91.0.4472.106 Safari/537.36" etag="UYBVIxnfNcm-1oW04zFA" version="14.8.5" type="github">
  <diagram id="N13bFzYinG4LB2TxntSP" name="Page-1">
    <mxGraphModel dx="1661" dy="914" grid="1" gridSize="10" guides="1" tooltips="1" connect="1" arrows="1" fold="1" page="1" pageScale="1" pageWidth="850" pageHeight="1100" math="0" shadow="0">
      <root>
        <mxCell id="0" />
        <mxCell id="1" parent="0" />
        <mxCell id="66kcaAMK34bE0zzmIQul-3" style="edgeStyle=orthogonalEdgeStyle;rounded=0;orthogonalLoop=1;jettySize=auto;html=1;exitX=0.5;exitY=1;exitDx=0;exitDy=0;entryX=0.5;entryY=0;entryDx=0;entryDy=0;" edge="1" parent="1" source="s-KJNOldX9j6S-8tBvY--1" target="66kcaAMK34bE0zzmIQul-1">
          <mxGeometry relative="1" as="geometry" />
        </mxCell>
        <mxCell id="66kcaAMK34bE0zzmIQul-4" style="edgeStyle=orthogonalEdgeStyle;rounded=0;orthogonalLoop=1;jettySize=auto;html=1;exitX=0.5;exitY=1;exitDx=0;exitDy=0;entryX=0.5;entryY=0;entryDx=0;entryDy=0;" edge="1" parent="1" source="s-KJNOldX9j6S-8tBvY--1" target="66kcaAMK34bE0zzmIQul-2">
          <mxGeometry relative="1" as="geometry" />
        </mxCell>
        <mxCell id="s-KJNOldX9j6S-8tBvY--1" value="Stablecoins" style="rounded=0;whiteSpace=wrap;html=1;" parent="1" vertex="1">
          <mxGeometry x="100" y="30" width="520" height="60" as="geometry" />
        </mxCell>
        <mxCell id="66kcaAMK34bE0zzmIQul-15" style="edgeStyle=orthogonalEdgeStyle;rounded=0;orthogonalLoop=1;jettySize=auto;html=1;exitX=0.75;exitY=1;exitDx=0;exitDy=0;entryX=1;entryY=0.5;entryDx=0;entryDy=0;" edge="1" parent="1" source="s-KJNOldX9j6S-8tBvY--3" target="GlD-1lXpTiAxiUlu8F3E-8">
          <mxGeometry relative="1" as="geometry" />
        </mxCell>
        <mxCell id="66kcaAMK34bE0zzmIQul-16" style="edgeStyle=orthogonalEdgeStyle;rounded=0;orthogonalLoop=1;jettySize=auto;html=1;exitX=0.75;exitY=1;exitDx=0;exitDy=0;entryX=1.009;entryY=0.482;entryDx=0;entryDy=0;entryPerimeter=0;" edge="1" parent="1" source="s-KJNOldX9j6S-8tBvY--3" target="GlD-1lXpTiAxiUlu8F3E-9">
          <mxGeometry relative="1" as="geometry" />
        </mxCell>
        <mxCell id="s-KJNOldX9j6S-8tBvY--3" value="Controlled" style="rounded=0;whiteSpace=wrap;html=1;" parent="1" vertex="1">
          <mxGeometry x="60" y="230" width="120" height="60" as="geometry" />
        </mxCell>
        <mxCell id="66kcaAMK34bE0zzmIQul-8" style="edgeStyle=orthogonalEdgeStyle;rounded=0;orthogonalLoop=1;jettySize=auto;html=1;exitX=0.75;exitY=1;exitDx=0;exitDy=0;entryX=1;entryY=0.5;entryDx=0;entryDy=0;entryPerimeter=0;" edge="1" parent="1" source="s-KJNOldX9j6S-8tBvY--6" target="s-KJNOldX9j6S-8tBvY--18">
          <mxGeometry relative="1" as="geometry" />
        </mxCell>
        <mxCell id="66kcaAMK34bE0zzmIQul-9" style="edgeStyle=orthogonalEdgeStyle;rounded=0;orthogonalLoop=1;jettySize=auto;html=1;exitX=0.75;exitY=1;exitDx=0;exitDy=0;entryX=1.009;entryY=0.572;entryDx=0;entryDy=0;entryPerimeter=0;" edge="1" parent="1" source="s-KJNOldX9j6S-8tBvY--6" target="s-KJNOldX9j6S-8tBvY--20">
          <mxGeometry relative="1" as="geometry" />
        </mxCell>
        <mxCell id="66kcaAMK34bE0zzmIQul-10" style="edgeStyle=orthogonalEdgeStyle;rounded=0;orthogonalLoop=1;jettySize=auto;html=1;exitX=0.75;exitY=1;exitDx=0;exitDy=0;entryX=0.991;entryY=0.483;entryDx=0;entryDy=0;entryPerimeter=0;" edge="1" parent="1" source="s-KJNOldX9j6S-8tBvY--6" target="s-KJNOldX9j6S-8tBvY--19">
          <mxGeometry relative="1" as="geometry" />
        </mxCell>
        <mxCell id="s-KJNOldX9j6S-8tBvY--6" value="Collateralised" style="rounded=0;whiteSpace=wrap;html=1;" parent="1" vertex="1">
          <mxGeometry x="220" y="230.01" width="120" height="60" as="geometry" />
        </mxCell>
        <mxCell id="66kcaAMK34bE0zzmIQul-17" style="edgeStyle=orthogonalEdgeStyle;rounded=0;orthogonalLoop=1;jettySize=auto;html=1;exitX=0.25;exitY=1;exitDx=0;exitDy=0;entryX=0;entryY=0.5;entryDx=0;entryDy=0;" edge="1" parent="1" source="s-KJNOldX9j6S-8tBvY--7" target="s-KJNOldX9j6S-8tBvY--39">
          <mxGeometry relative="1" as="geometry" />
        </mxCell>
        <mxCell id="66kcaAMK34bE0zzmIQul-18" style="edgeStyle=orthogonalEdgeStyle;rounded=0;orthogonalLoop=1;jettySize=auto;html=1;exitX=0.25;exitY=1;exitDx=0;exitDy=0;entryX=0;entryY=0.5;entryDx=0;entryDy=0;" edge="1" parent="1" source="s-KJNOldX9j6S-8tBvY--7" target="s-KJNOldX9j6S-8tBvY--40">
          <mxGeometry relative="1" as="geometry" />
        </mxCell>
        <mxCell id="s-KJNOldX9j6S-8tBvY--7" value="Algorithmic" style="rounded=0;whiteSpace=wrap;html=1;" parent="1" vertex="1">
          <mxGeometry x="540" y="230.01" width="120" height="60" as="geometry" />
        </mxCell>
        <mxCell id="s-KJNOldX9j6S-8tBvY--15" value="Single-colatoral" style="text;html=1;strokeColor=none;fillColor=none;align=left;verticalAlign=middle;whiteSpace=wrap;rounded=0;" parent="1" vertex="1">
          <mxGeometry x="430" y="314.88" width="100" height="20" as="geometry" />
        </mxCell>
        <mxCell id="s-KJNOldX9j6S-8tBvY--16" value="Multi-colatoral" style="text;html=1;strokeColor=none;fillColor=none;align=left;verticalAlign=middle;whiteSpace=wrap;rounded=0;" parent="1" vertex="1">
          <mxGeometry x="430" y="345.11" width="100" height="20" as="geometry" />
        </mxCell>
        <mxCell id="s-KJNOldX9j6S-8tBvY--18" value="By commodities" style="text;html=1;align=right;verticalAlign=middle;resizable=0;points=[];autosize=1;strokeColor=none;" parent="1" vertex="1">
          <mxGeometry x="190" y="315.12" width="100" height="20" as="geometry" />
        </mxCell>
        <mxCell id="s-KJNOldX9j6S-8tBvY--19" value="By fiat currencies" style="text;html=1;align=right;verticalAlign=middle;resizable=0;points=[];autosize=1;strokeColor=none;" parent="1" vertex="1">
          <mxGeometry x="180" y="365.12" width="110" height="20" as="geometry" />
        </mxCell>
        <mxCell id="s-KJNOldX9j6S-8tBvY--20" value="By financial assets" style="text;html=1;align=right;verticalAlign=middle;resizable=0;points=[];autosize=1;strokeColor=none;" parent="1" vertex="1">
          <mxGeometry x="180" y="340.24" width="110" height="20" as="geometry" />
        </mxCell>
        <mxCell id="s-KJNOldX9j6S-8tBvY--39" value="Seigniorage shares" style="text;html=1;strokeColor=none;fillColor=none;align=left;verticalAlign=middle;whiteSpace=wrap;rounded=0;" parent="1" vertex="1">
          <mxGeometry x="590" y="314.88" width="110" height="20" as="geometry" />
        </mxCell>
        <mxCell id="s-KJNOldX9j6S-8tBvY--40" value="DAO controlled" style="text;html=1;strokeColor=none;fillColor=none;align=left;verticalAlign=middle;whiteSpace=wrap;rounded=0;" parent="1" vertex="1">
          <mxGeometry x="590" y="345.11" width="100" height="20" as="geometry" />
        </mxCell>
        <mxCell id="GlD-1lXpTiAxiUlu8F3E-1" value="Single-derivative" style="text;html=1;strokeColor=none;fillColor=none;align=left;verticalAlign=middle;whiteSpace=wrap;rounded=0;" parent="1" vertex="1">
          <mxGeometry x="430" y="374.88" width="100" height="20" as="geometry" />
        </mxCell>
        <mxCell id="GlD-1lXpTiAxiUlu8F3E-2" value="Multi-derivative" style="text;html=1;strokeColor=none;fillColor=none;align=left;verticalAlign=middle;whiteSpace=wrap;rounded=0;" parent="1" vertex="1">
          <mxGeometry x="430" y="404.88" width="100" height="20" as="geometry" />
        </mxCell>
        <mxCell id="GlD-1lXpTiAxiUlu8F3E-8" value="Central Bank Digital Currencies" style="text;html=1;strokeColor=none;fillColor=none;align=right;verticalAlign=middle;whiteSpace=wrap;rounded=0;" parent="1" vertex="1">
          <mxGeometry x="30" y="314.88" width="100" height="20" as="geometry" />
        </mxCell>
        <mxCell id="GlD-1lXpTiAxiUlu8F3E-9" value="Corporate Coins" style="text;html=1;align=right;verticalAlign=middle;resizable=0;points=[];autosize=1;strokeColor=none;" parent="1" vertex="1">
          <mxGeometry x="30" y="350" width="100" height="20" as="geometry" />
        </mxCell>
        <mxCell id="66kcaAMK34bE0zzmIQul-19" style="edgeStyle=orthogonalEdgeStyle;rounded=0;orthogonalLoop=1;jettySize=auto;html=1;entryX=0.5;entryY=0;entryDx=0;entryDy=0;" edge="1" parent="1" source="66kcaAMK34bE0zzmIQul-1" target="s-KJNOldX9j6S-8tBvY--3">
          <mxGeometry relative="1" as="geometry" />
        </mxCell>
        <mxCell id="66kcaAMK34bE0zzmIQul-20" style="edgeStyle=orthogonalEdgeStyle;rounded=0;orthogonalLoop=1;jettySize=auto;html=1;" edge="1" parent="1" source="66kcaAMK34bE0zzmIQul-1">
          <mxGeometry relative="1" as="geometry">
            <mxPoint x="280" y="230" as="targetPoint" />
          </mxGeometry>
        </mxCell>
        <mxCell id="66kcaAMK34bE0zzmIQul-1" value="Centralised" style="rounded=0;whiteSpace=wrap;html=1;" vertex="1" parent="1">
          <mxGeometry x="80" y="130" width="250" height="60" as="geometry" />
        </mxCell>
        <mxCell id="66kcaAMK34bE0zzmIQul-21" style="edgeStyle=orthogonalEdgeStyle;rounded=0;orthogonalLoop=1;jettySize=auto;html=1;entryX=0.5;entryY=0;entryDx=0;entryDy=0;" edge="1" parent="1" source="66kcaAMK34bE0zzmIQul-2" target="66kcaAMK34bE0zzmIQul-5">
          <mxGeometry relative="1" as="geometry" />
        </mxCell>
        <mxCell id="66kcaAMK34bE0zzmIQul-22" style="edgeStyle=orthogonalEdgeStyle;rounded=0;orthogonalLoop=1;jettySize=auto;html=1;" edge="1" parent="1" source="66kcaAMK34bE0zzmIQul-2" target="s-KJNOldX9j6S-8tBvY--7">
          <mxGeometry relative="1" as="geometry" />
        </mxCell>
        <mxCell id="66kcaAMK34bE0zzmIQul-2" value="Distributed" style="rounded=0;whiteSpace=wrap;html=1;" vertex="1" parent="1">
          <mxGeometry x="390" y="130" width="250" height="60" as="geometry" />
        </mxCell>
        <mxCell id="66kcaAMK34bE0zzmIQul-11" style="edgeStyle=orthogonalEdgeStyle;rounded=0;orthogonalLoop=1;jettySize=auto;html=1;exitX=0.25;exitY=1;exitDx=0;exitDy=0;entryX=0;entryY=0.5;entryDx=0;entryDy=0;" edge="1" parent="1" source="66kcaAMK34bE0zzmIQul-5" target="s-KJNOldX9j6S-8tBvY--15">
          <mxGeometry relative="1" as="geometry" />
        </mxCell>
        <mxCell id="66kcaAMK34bE0zzmIQul-12" style="edgeStyle=orthogonalEdgeStyle;rounded=0;orthogonalLoop=1;jettySize=auto;html=1;exitX=0.25;exitY=1;exitDx=0;exitDy=0;entryX=0;entryY=0.5;entryDx=0;entryDy=0;" edge="1" parent="1" source="66kcaAMK34bE0zzmIQul-5" target="s-KJNOldX9j6S-8tBvY--16">
          <mxGeometry relative="1" as="geometry" />
        </mxCell>
        <mxCell id="66kcaAMK34bE0zzmIQul-13" style="edgeStyle=orthogonalEdgeStyle;rounded=0;orthogonalLoop=1;jettySize=auto;html=1;exitX=0.25;exitY=1;exitDx=0;exitDy=0;entryX=0;entryY=0.5;entryDx=0;entryDy=0;" edge="1" parent="1" source="66kcaAMK34bE0zzmIQul-5" target="GlD-1lXpTiAxiUlu8F3E-1">
          <mxGeometry relative="1" as="geometry" />
        </mxCell>
        <mxCell id="66kcaAMK34bE0zzmIQul-14" style="edgeStyle=orthogonalEdgeStyle;rounded=0;orthogonalLoop=1;jettySize=auto;html=1;exitX=0.25;exitY=1;exitDx=0;exitDy=0;entryX=0;entryY=0.5;entryDx=0;entryDy=0;" edge="1" parent="1" source="66kcaAMK34bE0zzmIQul-5" target="GlD-1lXpTiAxiUlu8F3E-2">
          <mxGeometry relative="1" as="geometry" />
        </mxCell>
        <mxCell id="66kcaAMK34bE0zzmIQul-5" value="Crypto-Collateralised" style="rounded=0;whiteSpace=wrap;html=1;" vertex="1" parent="1">
          <mxGeometry x="380" y="230" width="120" height="60" as="geometry" />
        </mxCell>
      </root>
    </mxGraphModel>
  </diagram>
</mxfile>
